<svg xmlns="http://www.w3.org/2000/svg" viewBox="0 0 640 512">
  <!--! Font Awesome Pro 6.4.0 by @fontawesome - https://fontawesome.com License - https://fontawesome.com/license (Commercial License) Copyright 2023 Fonticons, Inc. -->
  <path d="M392.8 1.2c-17-5.7-34.7 4.1-40.2 21.2l-114.7 352c-5.7 17.1 4.1 34.7 21.2 40.2s34.7-4.1 40.2-21.2l114.7-352c5.7-17.1-4.1-34.7-21.2-40.2zM192 104.9L9.1 234.3c-12.1 8.6-12.1 26.8 0 35.4L192 399.1c16.1 11.4 38.6-5.7 30.1-23.3L77 252 222.1 128.2c8.5-17.6-14-34.7-30.1-23.3zm256 0L630.9 234.3c12.1 8.6 12.1 26.8 0 35.4L448 399.1c-16.1 11.4-38.6-5.7-30.1-23.3L563 252 417.9 128.2c-8.5-17.6 14-34.7 30.1-23.3z" fill="#4f46e5"/>
</svg>